<svg width="24" height="24" viewBox="0 0 24 24" fill="none" xmlns="http://www.w3.org/2000/svg">
<path d="M0 12C0 5.37258 5.37258 0 12 0C18.6274 0 24 5.37258 24 12C24 18.6274 18.6274 24 12 24C5.37258 24 0 18.6274 0 12Z" fill="#F8F8F8"/>
<g clip-path="url(#clip0_1683_7892)">
<path d="M12 10C11.4696 10 10.9609 10.2107 10.5858 10.5858C10.2107 10.9609 10 11.4696 10 12C10 12.5304 10.2107 13.0391 10.5858 13.4142C10.9609 13.7893 11.4696 14 12 14C12.5304 14 13.0391 13.7893 13.4142 13.4142C13.7893 13.0391 14 12.5304 14 12C14 11.4696 13.7893 10.9609 13.4142 10.5858C13.0391 10.2107 12.5304 10 12 10ZM12 8.66666C12.884 8.66666 13.7319 9.01785 14.357 9.64297C14.9821 10.2681 15.3333 11.1159 15.3333 12C15.3333 12.884 14.9821 13.7319 14.357 14.357C13.7319 14.9821 12.884 15.3333 12 15.3333C11.1159 15.3333 10.2681 14.9821 9.64297 14.357C9.01785 13.7319 8.66666 12.884 8.66666 12C8.66666 11.1159 9.01785 10.2681 9.64297 9.64297C10.2681 9.01785 11.1159 8.66666 12 8.66666ZM16.3333 8.49999C16.3333 8.72101 16.2455 8.93297 16.0893 9.08925C15.933 9.24553 15.721 9.33333 15.5 9.33333C15.279 9.33333 15.067 9.24553 14.9107 9.08925C14.7545 8.93297 14.6667 8.72101 14.6667 8.49999C14.6667 8.27898 14.7545 8.06702 14.9107 7.91074C15.067 7.75446 15.279 7.66666 15.5 7.66666C15.721 7.66666 15.933 7.75446 16.0893 7.91074C16.2455 8.06702 16.3333 8.27898 16.3333 8.49999ZM12 6.66666C10.3507 6.66666 10.0813 6.67133 9.314 6.70533C8.79133 6.73 8.44066 6.79999 8.11533 6.92666C7.82599 7.03866 7.61733 7.17266 7.39533 7.39533C7.18667 7.59693 7.02623 7.84305 6.92599 8.11533C6.79933 8.44199 6.72933 8.792 6.70533 9.314C6.67066 10.05 6.66666 10.3073 6.66666 12C6.66666 13.6493 6.67133 13.9187 6.70533 14.686C6.73 15.208 6.79999 15.5593 6.92599 15.884C7.03933 16.174 7.17266 16.3827 7.394 16.604C7.61866 16.828 7.82733 16.962 8.114 17.0727C8.44333 17.2 8.794 17.2707 9.314 17.2947C10.05 17.3293 10.3073 17.3333 12 17.3333C13.6493 17.3333 13.9187 17.3287 14.686 17.2947C15.2073 17.27 15.5587 17.2 15.884 17.074C16.1727 16.9613 16.3827 16.8273 16.604 16.606C16.8287 16.3813 16.9627 16.1727 17.0733 15.886C17.2 15.5573 17.2707 15.206 17.2947 14.686C17.3293 13.95 17.3333 13.6927 17.3333 12C17.3333 10.3507 17.3287 10.0813 17.2947 9.314C17.27 8.79266 17.2 8.44066 17.0733 8.11533C16.9729 7.84333 16.8127 7.5973 16.6047 7.39533C16.4032 7.18656 16.157 7.02611 15.8847 6.92599C15.558 6.79933 15.2073 6.72933 14.686 6.70533C13.95 6.67066 13.6927 6.66666 12 6.66666ZM12 5.33333C13.8113 5.33333 14.0373 5.33999 14.748 5.37333C15.458 5.40666 15.9413 5.51799 16.3667 5.68333C16.8067 5.85266 17.1773 6.08199 17.548 6.45199C17.887 6.78526 18.1493 7.18839 18.3167 7.63333C18.4813 8.05799 18.5933 8.54199 18.6267 9.25199C18.658 9.96266 18.6667 10.1887 18.6667 12C18.6667 13.8113 18.66 14.0373 18.6267 14.748C18.5933 15.458 18.4813 15.9413 18.3167 16.3667C18.1498 16.8118 17.8874 17.2151 17.548 17.548C17.2146 17.8869 16.8115 18.1492 16.3667 18.3167C15.942 18.4813 15.458 18.5933 14.748 18.6267C14.0373 18.658 13.8113 18.6667 12 18.6667C10.1887 18.6667 9.96266 18.66 9.25199 18.6267C8.54199 18.5933 8.05866 18.4813 7.63333 18.3167C7.18821 18.1496 6.78501 17.8873 6.45199 17.548C6.11293 17.2148 5.85062 16.8116 5.68333 16.3667C5.51799 15.942 5.40666 15.458 5.37333 14.748C5.34199 14.0373 5.33333 13.8113 5.33333 12C5.33333 10.1887 5.33999 9.96266 5.37333 9.25199C5.40666 8.54133 5.51799 8.05866 5.68333 7.63333C5.85015 7.18811 6.11253 6.78488 6.45199 6.45199C6.78511 6.11282 7.18828 5.85048 7.63333 5.68333C8.05866 5.51799 8.54133 5.40666 9.25199 5.37333C9.96266 5.34199 10.1887 5.33333 12 5.33333Z" fill="#2D2D2D"/>
</g>
<defs>
<clipPath id="clip0_1683_7892">
<rect width="16" height="16" fill="white" transform="translate(4 4)"/>
</clipPath>
</defs>
</svg>
