<svg width="24" height="24" viewBox="0 0 24 24" fill="none" xmlns="http://www.w3.org/2000/svg">
<path d="M0 12C0 5.37258 5.37258 0 12 0C18.6274 0 24 5.37258 24 12C24 18.6274 18.6274 24 12 24C5.37258 24 0 18.6274 0 12Z" fill="#F8F8F8"/>
<g clip-path="url(#clip0_1681_7887)">
<path d="M16.2427 14.3573L15.3 13.4133L16.2427 12.4707C16.5544 12.1616 16.8021 11.7941 16.9714 11.3891C17.1407 10.9841 17.2284 10.5496 17.2293 10.1107C17.2303 9.67168 17.1445 9.23685 16.977 8.83111C16.8094 8.42538 16.5634 8.05673 16.253 7.74633C15.9426 7.43593 15.574 7.1899 15.1682 7.02236C14.7625 6.85482 14.3277 6.76907 13.8887 6.77003C13.4497 6.77099 13.0153 6.85864 12.6103 7.02796C12.2053 7.19728 11.8377 7.44492 11.5287 7.75667L10.586 8.70001L9.64267 7.75734L10.5867 6.81467C11.4619 5.93946 12.6489 5.44777 13.8867 5.44777C15.1244 5.44777 16.3115 5.93946 17.1867 6.81467C18.0619 7.68989 18.5536 8.87693 18.5536 10.1147C18.5536 11.3524 18.0619 12.5395 17.1867 13.4147L16.2433 14.3573H16.2427ZM14.3573 16.2427L13.414 17.1853C12.5388 18.0606 11.3517 18.5522 10.114 18.5522C8.87626 18.5522 7.68922 18.0606 6.814 17.1853C5.93879 16.3101 5.4471 15.1231 5.4471 13.8853C5.4471 12.6476 5.93879 11.4606 6.814 10.5853L7.75734 9.64267L8.7 10.5867L7.75734 11.5293C7.44558 11.8384 7.19794 12.2059 7.02862 12.6109C6.8593 13.0159 6.77165 13.4504 6.77069 13.8894C6.76973 14.3283 6.85548 14.7632 7.02302 15.1689C7.19056 15.5746 7.43659 15.9433 7.74699 16.2537C8.05739 16.5641 8.42604 16.8101 8.83177 16.9777C9.23751 17.1452 9.67235 17.231 10.1113 17.23C10.5503 17.229 10.9847 17.1414 11.3897 16.9721C11.7947 16.8027 12.1623 16.5551 12.4713 16.2433L13.414 15.3007L14.3573 16.2433V16.2427ZM13.8853 9.17134L14.8287 10.1147L10.1147 14.828L9.17134 13.8853L13.8853 9.17201V9.17134Z" fill="#2D2D2D"/>
</g>
<defs>
<clipPath id="clip0_1681_7887">
<rect width="16" height="16" fill="white" transform="translate(4 4)"/>
</clipPath>
</defs>
</svg>
