<svg width="24" height="24" viewBox="0 0 24 24" fill="none" xmlns="http://www.w3.org/2000/svg">
<path d="M0 12C0 5.37258 5.37258 0 12 0C18.6274 0 24 5.37258 24 12C24 18.6274 18.6274 24 12 24C5.37258 24 0 18.6274 0 12Z" fill="#F8F8F8"/>
<g clip-path="url(#clip0_1683_7897)">
<path d="M8.62667 7.33333C8.6265 7.68695 8.48585 8.02602 8.23568 8.27594C7.9855 8.52587 7.6463 8.66617 7.29267 8.666C6.93905 8.66582 6.59998 8.52517 6.35006 8.275C6.10014 8.02483 5.95983 7.68562 5.96001 7.332C5.96018 6.97837 6.10083 6.63931 6.351 6.38938C6.60118 6.13946 6.94038 5.99915 7.29401 5.99933C7.64763 5.99951 7.9867 6.14015 8.23662 6.39032C8.48654 6.6405 8.62685 6.97971 8.62667 7.33333ZM8.66667 9.65333H6.00001V18H8.66667V9.65333ZM12.88 9.65333H10.2267V18H12.8533V13.62C12.8533 11.18 16.0333 10.9533 16.0333 13.62V18H18.6667V12.7133C18.6667 8.6 13.96 8.75333 12.8533 10.7733L12.88 9.65333Z" fill="#2D2D2D"/>
</g>
<defs>
<clipPath id="clip0_1683_7897">
<rect width="16" height="16" fill="white" transform="translate(4 4)"/>
</clipPath>
</defs>
</svg>
